<svg width="24" height="24" viewBox="0 0 24 24" fill="none" xmlns="http://www.w3.org/2000/svg">
<path d="M17.0008 20.28C16.0236 21.23 14.9567 21.08 13.9297 20.63C12.8428 20.17 11.8457 20.15 10.699 20.63C9.26317 21.25 8.50536 21.07 7.64784 20.28C2.7819 15.25 3.49983 7.59 9.02386 7.31C10.37 7.38 11.3073 8.05 12.095 8.11C13.2716 7.87 14.3983 7.18 15.6547 7.27C17.1603 7.39 18.2971 7.99 19.0449 9.07C15.9339 10.94 16.6718 15.05 19.5235 16.2C18.9552 17.7 18.2173 19.19 16.9908 20.29L17.0008 20.28ZM11.9953 7.25C11.8457 5.02 13.6505 3.18 15.7245 3C16.0137 5.58 13.3912 7.5 11.9953 7.25Z" fill="white"/>
</svg>
