<svg width="25" height="24" viewBox="0 0 25 24" fill="none" xmlns="http://www.w3.org/2000/svg">
<path d="M11.3995 21.5388L3.44822 13.6234C2.85055 13.0278 2.85055 11.974 3.44822 11.3763L11.3995 3.46093C12.0204 2.84425 13.0236 2.84637 13.6403 3.46727C14.2569 4.08817 14.2569 5.0892 13.636 5.70799L8.40485 10.9181L21.826 10.9181C22.7024 10.9181 23.4099 11.6277 23.4099 12.502C23.4099 13.3763 22.7024 14.0859 21.826 14.0859H8.40485L13.636 19.2939C13.9465 19.6043 14.1006 20.0098 14.1006 20.4174C14.1006 20.8208 13.9465 21.2262 13.6403 21.5346C13.0236 22.1534 12.0204 22.1555 11.3995 21.5388Z" fill="white"/>
</svg>
