<svg width="24" height="24" viewBox="0 0 24 24" fill="none" xmlns="http://www.w3.org/2000/svg">
<g clip-path="url(#clip0_893_707)">
<path d="M19.325 9.468C19.325 9.468 18.782 16.203 18.467 19.04C18.317 20.395 17.48 21.19 16.109 21.214C13.499 21.261 10.888 21.264 8.279 21.209C6.961 21.182 6.138 20.379 5.991 19.047C5.674 16.185 5.134 9.468 5.134 9.468M20.708 6.24H3.75M17.44 6.24C17.0595 6.23958 16.6908 6.10748 16.3966 5.86615C16.1024 5.62481 15.9008 5.2891 15.826 4.916L15.583 3.7C15.5103 3.42749 15.3496 3.18662 15.1259 3.01483C14.9022 2.84304 14.628 2.74994 14.346 2.75H10.113C9.83095 2.74994 9.55679 2.84304 9.33309 3.01483C9.1094 3.18662 8.94872 3.42749 8.876 3.7L8.633 4.916C8.55816 5.28926 8.35639 5.6251 8.06199 5.86646C7.76758 6.10782 7.39869 6.23981 7.018 6.24" stroke="#D81313" stroke-width="2.25" stroke-linecap="round" stroke-linejoin="round"/>
</g>
<defs>
<clipPath id="clip0_893_707">
<rect width="24" height="24" fill="white"/>
</clipPath>
</defs>
</svg>
