<svg width="12" height="12" viewBox="0 0 12 12" fill="none" xmlns="http://www.w3.org/2000/svg">
<path d="M10.5 11H1.5C1.295 11 1.125 10.83 1.125 10.625C1.125 10.42 1.295 10.25 1.5 10.25H10.5C10.705 10.25 10.875 10.42 10.875 10.625C10.875 10.83 10.705 11 10.5 11Z" fill="white"/>
<path d="M9.51004 1.74002C8.54004 0.770018 7.59004 0.745018 6.59504 1.74002L5.99004 2.34502C5.94004 2.39502 5.92004 2.47502 5.94004 2.54502C6.32004 3.87002 7.38004 4.93002 8.70504 5.31002C8.72504 5.31502 8.74504 5.32002 8.76504 5.32002C8.82004 5.32002 8.87004 5.30002 8.91004 5.26002L9.51004 4.65502C10.005 4.16502 10.245 3.69002 10.245 3.21002C10.25 2.71502 10.01 2.23502 9.51004 1.74002Z" fill="white"/>
<path d="M7.80504 5.76502C7.66004 5.69502 7.52004 5.62502 7.38504 5.54502C7.27504 5.48002 7.17004 5.41002 7.06504 5.33502C6.98004 5.28002 6.88004 5.20002 6.78504 5.12002C6.77504 5.11502 6.74004 5.08502 6.70004 5.04502C6.53504 4.90502 6.35004 4.72502 6.18504 4.52502C6.17004 4.51502 6.14504 4.48002 6.11004 4.43502C6.06004 4.37502 5.97504 4.27502 5.90004 4.16002C5.84004 4.08502 5.77004 3.97502 5.70504 3.86502C5.62504 3.73002 5.55504 3.59502 5.48504 3.45502C5.39326 3.25835 5.13513 3.19993 4.98167 3.35339L2.17004 6.16502C2.10504 6.23002 2.04504 6.35502 2.03004 6.44002L1.76004 8.35502C1.71004 8.69502 1.80504 9.01502 2.01504 9.23002C2.19504 9.40502 2.44504 9.50002 2.71504 9.50002C2.77504 9.50002 2.83504 9.49502 2.89504 9.48502L4.81504 9.21502C4.90504 9.20002 5.03004 9.14002 5.09004 9.07502L7.90631 6.25875C8.0567 6.10836 8.00019 5.84959 7.80504 5.76502Z" fill="white"/>
</svg>
