<svg width="24" height="24" viewBox="0 0 24 24" fill="none" xmlns="http://www.w3.org/2000/svg">
<path d="M20.9 11.6C20.8 11.5 20.8 11.4 20.7 11.3L17.7 8.3C17.3 7.9 16.7 7.9 16.3 8.3C15.9 8.7 15.9 9.3 16.3 9.7L17.6 11H13C12.4 11 12 11.4 12 12C12 12.6 12.4 13 13 13H17.6L16.3 14.3C15.9 14.7 15.9 15.3 16.3 15.7C16.5 15.9 16.8 16 17 16C17.2 16 17.5 15.9 17.7 15.7L20.7 12.7C20.8 12.6 20.9 12.5 20.9 12.4C21 12.1 21 11.9 20.9 11.6Z" fill="white"/>
<path d="M15.5 18.1C14.4 18.7 13.2 19 12 19C8.1 19 5 15.9 5 12C5 8.1 8.1 5 12 5C13.2 5 14.4 5.3 15.5 5.9C16 6.2 16.6 6 16.9 5.5C17.2 5 17 4.4 16.5 4.1C15.1 3.4 13.6 3 12 3C7 3 3 7 3 12C3 17 7 21 12 21C13.6 21 15.1 20.6 16.5 19.8C17 19.5 17.1 18.9 16.9 18.4C16.6 18 16 17.8 15.5 18.1Z" fill="white"/>
</svg>
