<svg width="29" height="29" viewBox="0 0 29 29" fill="none" xmlns="http://www.w3.org/2000/svg">
<g clip-path="url(#clip0_677_650)">
<path d="M24.7708 5.4375L27.1875 10.2708H1.8125L4.22917 5.4375M24.7708 5.4375H4.22917M24.7708 5.4375V3.625C24.7708 2.65833 23.925 1.8125 22.9583 1.8125H6.04167C5.075 1.8125 4.22917 2.65833 4.22917 3.625V5.4375" stroke="white" stroke-width="1.20833" stroke-linecap="round" stroke-linejoin="round"/>
<path d="M1.8125 10.2712C1.8125 12.3254 3.50417 13.8962 5.4375 13.7754C6.40417 13.7754 7.37083 13.2921 7.975 12.6879C8.7 14.6212 10.7542 15.4671 12.6875 14.8629C13.4125 14.6212 14.0167 14.1379 14.5 13.4129C15.5875 15.1046 17.8833 15.5879 19.575 14.3796C20.1792 13.8962 20.6625 13.2921 21.025 12.5671C22.3542 14.0171 24.65 14.1379 26.1 12.6879C26.825 11.9629 27.1875 11.1171 27.1875 10.1504" stroke="white" stroke-width="1.20833" stroke-linecap="round" stroke-linejoin="round"/>
<path d="M8.09591 12.6875V10.2708L9.06258 5.4375M20.9042 12.6875V10.2708L19.9376 5.4375M14.5001 13.4125V5.4375M4.22925 13.8958V25.375C4.22925 26.3417 5.07508 27.1875 6.04175 27.1875H22.9584C23.9251 27.1875 24.7709 26.3417 24.7709 25.375V13.8958" stroke="white" stroke-width="1.20833" stroke-linecap="round" stroke-linejoin="round"/>
<path d="M15.1042 17.5215H21.1459V27.1882H15.1042V17.5215ZM7.85425 17.5215H12.6876V22.3548H7.85425V17.5215Z" stroke="white" stroke-width="1.20833" stroke-linecap="round" stroke-linejoin="round"/>
</g>
<defs>
<clipPath id="clip0_677_650">
<rect width="29" height="29" fill="white"/>
</clipPath>
</defs>
</svg>
